# xmcd
#
# Track frame offsets:
#	150
#	14923
#	31305
#	45386
#	59036
#	75525
#	94440
#	114172
#	127605
#	141262
#	158212
#	168895
#	182287
#
# Disc length: 2438
#
# Revision: 1
# Processed by: cddbd v1.5.1PL0 Copyright (c) Steve Scherf et al.
# Submitted via: VisiTrax 2.9.5.180 - For more info visit www.synapsa.com
# Normalized: r0:DSETVAR1
#
DISCID=a009840d
DTITLE=Various Artist - CDX 201 November 1998
DYEAR=1998
DGENRE=
TTITLE0=Joe Diffie - Behind closed doors
TTITLE1=Great Divide - Break in the storm
TTITLE2=Suzy Bogguss - From where I satnd
TTITLE3=Billy Dean - Innocent bystander
TTITLE4=Randy Scruggs/Mary Chapin Carpenter - It's only love
TTITLE5=Garth Brooks - It's your song
TTITLE6=Garth Brooks - It's your song
TTITLE7=Alabama - Keepin' up
TTITLE8=Trisha Yearwood - Powerful thimg
TTITLE9=Shania Twain - That don't impress me much
TTITLE10=Dale Watson and His Lone Stars - Good luck 'n' good truckin' tonite
TTITLE11=Orion - The fireplace
TTITLE12=Garth Brooks - Liner
EXTD=
EXTT0=
EXTT1=
EXTT2=
EXTT3=
EXTT4=
EXTT5=
EXTT6=
EXTT7=
EXTT8=
EXTT9=
EXTT10=
EXTT11=
EXTT12=
PLAYORDER=
